<svg id="visual" viewBox="0 0 1920 1080" width="1920" height="1080" xmlns="http://www.w3.org/2000/svg" xmlns:xlink="http://www.w3.org/1999/xlink" version="1.1"><rect x="0" y="0" width="1920" height="1080" fill="#386641"></rect><defs><linearGradient id="grad1_0" x1="43.8%" y1="0%" x2="100%" y2="100%"><stop offset="14.444444444444446%" stop-color="#2f5937" stop-opacity="1"></stop><stop offset="85.55555555555554%" stop-color="#2f5937" stop-opacity="1"></stop></linearGradient></defs><defs><linearGradient id="grad1_1" x1="43.8%" y1="0%" x2="100%" y2="100%"><stop offset="14.444444444444446%" stop-color="#2f5937" stop-opacity="1"></stop><stop offset="85.55555555555554%" stop-color="#386641" stop-opacity="1"></stop></linearGradient></defs><defs><linearGradient id="grad2_0" x1="0%" y1="0%" x2="56.3%" y2="100%"><stop offset="14.444444444444446%" stop-color="#2f5937" stop-opacity="1"></stop><stop offset="85.55555555555554%" stop-color="#2f5937" stop-opacity="1"></stop></linearGradient></defs><defs><linearGradient id="grad2_1" x1="0%" y1="0%" x2="56.3%" y2="100%"><stop offset="14.444444444444446%" stop-color="#386641" stop-opacity="1"></stop><stop offset="85.55555555555554%" stop-color="#2f5937" stop-opacity="1"></stop></linearGradient></defs><g transform="translate(1920, 0)"><path d="M0 972C-109.7 896.5 -219.3 820.9 -314.9 760.4C-410.6 699.8 -492.2 654.1 -597.5 597.5C-702.8 540.9 -831.7 473.4 -898 372C-964.4 270.6 -968.2 135.3 -972 0L0 0Z" fill="#335f3c"></path><path d="M0 486C-54.8 448.2 -109.7 410.5 -157.5 380.2C-205.3 349.9 -246.1 327.1 -298.8 298.8C-351.4 270.5 -415.8 236.7 -449 186C-482.2 135.3 -484.1 67.6 -486 0L0 0Z" fill="#2f5937"></path></g><g transform="translate(0, 1080)"><path d="M0 -972C110.6 -917.2 221.3 -862.5 341 -823.2C460.7 -783.9 589.5 -760 687.3 -687.3C785.1 -614.6 852 -493.1 894.3 -370.4C936.6 -247.8 954.3 -123.9 972 0L0 0Z" fill="#335f3c"></path><path d="M0 -486C55.3 -458.6 110.6 -431.2 170.5 -411.6C230.3 -391.9 294.7 -380 343.7 -343.7C392.6 -307.3 426 -246.6 447.2 -185.2C468.3 -123.9 477.2 -61.9 486 0L0 0Z" fill="#2f5937"></path></g></svg>