<svg id="visual" viewBox="0 0 1920 1080" width="1920" height="1080" xmlns="http://www.w3.org/2000/svg" xmlns:xlink="http://www.w3.org/1999/xlink" version="1.1"><rect x="0" y="0" width="1920" height="1080" fill="#BC4749"></rect><defs><linearGradient id="grad1_0" x1="43.8%" y1="100%" x2="100%" y2="0%"><stop offset="14.444444444444446%" stop-color="#a04142" stop-opacity="1"></stop><stop offset="85.55555555555554%" stop-color="#a04142" stop-opacity="1"></stop></linearGradient></defs><defs><linearGradient id="grad1_1" x1="43.8%" y1="100%" x2="100%" y2="0%"><stop offset="14.444444444444446%" stop-color="#a04142" stop-opacity="1"></stop><stop offset="85.55555555555554%" stop-color="#bc4749" stop-opacity="1"></stop></linearGradient></defs><defs><linearGradient id="grad2_0" x1="0%" y1="100%" x2="56.3%" y2="0%"><stop offset="14.444444444444446%" stop-color="#a04142" stop-opacity="1"></stop><stop offset="85.55555555555554%" stop-color="#a04142" stop-opacity="1"></stop></linearGradient></defs><defs><linearGradient id="grad2_1" x1="0%" y1="100%" x2="56.3%" y2="0%"><stop offset="14.444444444444446%" stop-color="#bc4749" stop-opacity="1"></stop><stop offset="85.55555555555554%" stop-color="#a04142" stop-opacity="1"></stop></linearGradient></defs><g transform="translate(1920, 1080)"><path d="M-972 0C-896.5 -109.7 -820.9 -219.3 -760.4 -314.9C-699.8 -410.6 -654.1 -492.2 -597.5 -597.5C-540.9 -702.8 -473.4 -831.7 -372 -898C-270.6 -964.4 -135.3 -968.2 0 -972L0 0Z" fill="#ae4446"></path><path d="M-486 0C-448.2 -54.8 -410.5 -109.7 -380.2 -157.5C-349.9 -205.3 -327.1 -246.1 -298.8 -298.8C-270.5 -351.4 -236.7 -415.8 -186 -449C-135.3 -482.2 -67.6 -484.1 0 -486L0 0Z" fill="#a04142"></path></g><g transform="translate(0, 0)"><path d="M972 0C917.2 110.6 862.5 221.3 823.2 341C783.9 460.7 760 589.5 687.3 687.3C614.6 785.1 493.1 852 370.4 894.3C247.8 936.6 123.9 954.3 0 972L0 0Z" fill="#ae4446"></path><path d="M486 0C458.6 55.3 431.2 110.6 411.6 170.5C391.9 230.3 380 294.7 343.7 343.7C307.3 392.6 246.6 426 185.2 447.2C123.9 468.3 61.9 477.2 0 486L0 0Z" fill="#a04142"></path></g></svg>